<?xml version="1.0" encoding="UTF-8"?>
<!DOCTYPE svg PUBLIC "-//W3C//DTD SVG 1.1//EN" "http://www.w3.org/Graphics/SVG/1.1/DTD/svg11.dtd">
<!-- Creator: CorelDRAW 2018 (64-Bit) -->
<svg xmlns="http://www.w3.org/2000/svg" xml:space="preserve" width="1000px" height="134px" version="1.1" style="shape-rendering:geometricPrecision; text-rendering:geometricPrecision; image-rendering:optimizeQuality; fill-rule:evenodd; clip-rule:evenodd"
viewBox="0 0 1000 134.48"
 xmlns:xlink="http://www.w3.org/1999/xlink">
 <defs>
  <style type="text/css">
   <![CDATA[
    .fil1 {fill:black}
    .fil2 {fill:#E60000}
    .fil0 {fill:white}
   ]]>
  </style>
 </defs>
 <g id="Layer_x0020_1">
  <metadata id="CorelCorpID_0Corel-Layer"/>
  <g id="_4071024688">
   <rect class="fil0" x="558.71" y="4.64" width="438.5" height="127.05"/>
   <path class="fil1" d="M482.43 15.64c8.98,0 14.01,6.54 14.01,17.48l0 41.65c0,10.81 -5.03,16.49 -14.01,16.49 -9.9,0 -14.47,-5.83 -14.47,-16.49l0 -41.93c0,-10.95 4.57,-17.2 14.47,-17.2zm-35.78 19.47l0 37.25c0,25.87 14.92,34.56 35.78,34.56 21.16,0 35.32,-8.41 35.32,-34.56l0 -37.25c0,-26.15 -14.16,-35.11 -35.32,-35.11 -20.86,0 -35.78,9.24 -35.78,35.11zm-52.75 -18.05l10.51 0c10.5,0 15.68,5.4 15.68,15.07 0,9.81 -5.18,15.35 -15.68,15.35l-10.51 0 0 -30.42zm0 45.63l18.27 0c17.82,0 29.24,-13.93 29.24,-30.85 0,-16.49 -11.12,-29.99 -28.93,-29.99l-39.44 0 0 102.63 20.86 0 0 -41.79zm-51.68 -45.2l25.89 0 0 -15.64 -72.63 0 0 15.64 25.88 0 0 86.99 20.86 0 0 -86.99zm-97.2 -15.64l-20.86 0 0 102.63 20.86 0 0 -30.84 8.22 -10.1 18.27 40.94 23.3 0 -28.78 -58.14 27.87 -44.49 -23.6 0 -25.28 44.49 0 -44.49zm-87.31 0l0 102.63 58.77 0 0 -15.64 -37.91 0 0 -31.84 34.56 0 0 -15.63 -34.56 0 0 -23.88 37.91 0 0 -15.64 -58.77 0zm-74.36 0l0 49.19c0,37.24 -2.59,40.36 -8.99,40.36 -2.43,0 -5.32,-0.28 -6.69,-0.71l0 14.39c3.95,0.99 7.76,1.27 12.63,1.27 17.51,0 23.6,-15.23 23.6,-49.49l0 -39.37 22.23 0 0 86.99 20.86 0 0 -102.63 -63.64 0zm-62.49 31.13c0,-10.66 2.89,-17.34 12.64,-17.34 10.05,0 12.33,6.68 12.33,17.34l0 8.39 -17.51 0 0 15.63 17.51 0 0 17.91c0,10.1 -4.26,16.35 -12.33,16.35 -10.05,0 -12.64,-5.68 -12.64,-15.77l0 -7.11 -20.86 0 0 4.97c0,23.88 10.96,33.57 33.8,33.57 21.78,0 33.35,-10.54 33.35,-34.42l0 -43.79c0,-16.77 -10.81,-28.71 -33.65,-28.71 -22.08,0 -33.5,11.8 -33.5,28.71l0 4.27 20.86 0z"/>
   <path class="fil2" d="M555.92 1.85l444.08 0 0 132.63c-333.33,0 -666.67,0 -1000,-0.01l0 -9.56 555.92 0 0 -123.06zm100.32 58.72l-16.15 0c-0.46,-2.66 -1.24,-4.53 -2.33,-5.62 -1.8,-1.8 -4.72,-2.69 -8.78,-2.69 -6.78,0 -10.17,2.06 -10.17,6.2 0,2.5 3.39,4.49 10.17,5.97 10.06,2.18 16.34,3.86 18.84,5.03 6.86,3.2 10.29,8.16 10.29,14.87 0,8.03 -3.36,13.93 -10.06,17.67 -4.76,2.65 -10.57,3.98 -17.43,3.98 -8.34,0 -15.13,-1.48 -20.35,-4.45 -6.55,-3.74 -9.83,-9.52 -9.83,-17.32l16.96 0c0,6.16 4.57,9.25 13.69,9.25 2.65,0 4.91,-0.43 6.78,-1.29 2.5,-1.17 3.74,-2.93 3.74,-5.27 0,-2.65 -3.35,-4.72 -10.05,-6.2 -10.06,-2.19 -16.3,-3.86 -18.72,-5.03 -6.78,-3.2 -10.17,-8.16 -10.17,-14.87 0,-6.94 2.53,-12.29 7.6,-16.04 4.6,-3.35 10.53,-5.03 17.78,-5.03 18.79,0 28.19,6.95 28.19,20.84zm29.47 -19.2l0 62.97 -16.49 0 0 -62.97 16.49 0zm0 -22.71l0 15.33 -16.49 0 0 -15.33 16.49 0zm30.52 0.7l0 84.98 -16.49 0 0 -84.98 16.49 0zm29.01 42.38l-15.91 0c0.78,-8.28 3.71,-14.13 8.78,-17.56 4.29,-2.97 10.72,-4.45 19.3,-4.45 7.01,0 12.71,1.29 17.07,3.86 5.3,3.12 7.95,7.93 7.95,14.4l0 34.06c0,5.7 1.21,8.94 3.63,9.72l0 2.57 -17.78 0c-0.7,-2.1 -1.21,-4.6 -1.52,-7.49 -5.92,6.09 -12.71,9.13 -20.35,9.13 -5.77,0 -10.39,-1.62 -13.86,-4.86 -3.47,-3.24 -5.2,-7.74 -5.2,-13.52 0,-7.33 3.19,-12.95 9.59,-16.85 5.38,-3.28 11.96,-4.92 19.76,-4.92 6.4,0 9.59,-1.83 9.59,-5.5 0,-4.91 -3.62,-7.37 -10.87,-7.37 -6.01,0 -9.4,2.92 -10.18,8.78zm21.05 11.93c-1.95,1.49 -5.77,2.66 -11.46,3.52 -3.51,0.54 -6.08,1.36 -7.72,2.46 -2.18,1.48 -3.27,3.78 -3.27,6.9 0,5.07 2.57,7.61 7.72,7.61 3.82,0 7.23,-1.13 10.23,-3.39 3,-2.27 4.5,-5.27 4.5,-9.02l0 -8.08zm48.42 13.47l0 17.2 -17.66 0 0 -17.2 17.66 0zm44.62 -33.13c-5.04,0 -8.77,2.07 -11.19,6.22 -1.93,3.36 -2.9,7.75 -2.9,13.15 0,5.01 1.01,9.27 3.02,12.8 2.42,4.23 5.95,6.34 10.61,6.34 4.97,0 8.69,-1.87 11.18,-5.64 2.25,-3.2 3.38,-7.39 3.38,-12.56 0,-13.54 -4.7,-20.31 -14.1,-20.31zm-13.51 -34.65l0 30.2c4.84,-6.55 11,-9.83 18.48,-9.83 8.66,0 15.33,3.28 20.01,9.83 4.13,5.78 6.19,13.19 6.19,22.24 0,9.44 -2.04,17.25 -6.12,23.41 -4.7,7.18 -11.56,10.77 -20.56,10.77 -8.39,0 -14.39,-3.2 -18,-9.6l0 7.96 -16.49 0 0 -84.98 16.49 0zm50.06 22.01l18.48 0 13.45 46.35 13.1 -46.35 17.55 0 -21.64 61.8c-3.82,10.85 -6.98,17.79 -9.47,20.84 -3.28,3.98 -8.23,5.85 -14.86,5.62l-7.48 -0.24 0 -12.99 3.15 0c3.12,0.23 5.54,-0.27 7.26,-1.52 1.71,-1.25 2.92,-3.9 3.62,-7.96l-23.16 -65.55z"/>
  </g>
 </g>
</svg>
