<?xml version="1.0" standalone="no"?>
<!DOCTYPE svg PUBLIC "-//W3C//DTD SVG 20010904//EN"
 "http://www.w3.org/TR/2001/REC-SVG-20010904/DTD/svg10.dtd">
<svg version="1.0" xmlns="http://www.w3.org/2000/svg"
 width="3264.000000pt" height="3264.000000pt" viewBox="0 0 3264.000000 3264.000000"
 preserveAspectRatio="xMidYMid meet">

<g transform="translate(0.000000,3264.000000) scale(0.100000,-0.100000)"
fill="#FFFFFF" stroke="none">
<path d="M8565 30243 c-159 -7 -538 -34 -546 -39 -5 -3 -59 -11 -121 -20 -209
-27 -291 -42 -433 -79 -27 -7 -95 -23 -150 -35 -211 -45 -399 -91 -410 -100
-5 -4 -21 -10 -35 -13 -14 -3 -77 -24 -140 -47 -63 -23 -128 -45 -145 -50 -16
-4 -55 -18 -85 -30 -30 -12 -66 -25 -80 -29 -118 -38 -666 -306 -815 -398 -27
-17 -85 -53 -129 -80 -298 -183 -606 -412 -865 -642 -156 -139 -486 -476 -617
-631 -102 -121 -267 -334 -330 -425 -120 -176 -174 -256 -174 -261 0 -2 -8
-17 -19 -32 -63 -92 -105 -160 -151 -248 -29 -54 -68 -125 -87 -157 -18 -32
-33 -60 -33 -63 0 -3 -30 -67 -66 -142 -37 -75 -73 -150 -80 -167 -16 -37 -45
-106 -68 -160 -10 -22 -21 -49 -26 -60 -12 -26 -39 -102 -50 -140 -5 -16 -41
-122 -80 -235 -69 -199 -91 -273 -110 -373 -5 -26 -13 -62 -19 -80 -6 -17 -20
-75 -32 -127 -11 -52 -25 -106 -30 -120 -13 -34 -38 -186 -50 -295 -5 -49 -12
-97 -15 -105 -9 -24 -36 -247 -46 -380 -14 -187 -23 -15522 -9 -15975 11 -335
25 -508 57 -678 8 -42 14 -94 14 -115 0 -20 5 -57 11 -82 6 -25 14 -72 18
-105 7 -52 29 -144 85 -360 23 -86 38 -148 47 -190 5 -22 34 -112 64 -200 31
-88 60 -173 65 -190 8 -28 15 -50 45 -135 13 -35 76 -190 101 -245 7 -16 25
-57 40 -90 36 -81 177 -367 215 -435 61 -111 122 -215 129 -220 4 -3 13 -17
21 -32 59 -114 281 -438 379 -554 19 -23 91 -110 160 -194 69 -84 150 -179
180 -210 30 -31 91 -95 136 -141 115 -120 279 -276 354 -338 36 -30 98 -84
138 -120 41 -36 81 -70 90 -75 8 -5 80 -57 158 -115 78 -58 165 -122 194 -141
28 -19 57 -40 63 -46 10 -8 79 -52 175 -109 9 -6 36 -23 59 -38 24 -15 68 -41
99 -58 104 -56 149 -80 194 -106 131 -73 373 -190 525 -252 55 -23 107 -45
115 -50 9 -5 31 -12 50 -16 19 -4 41 -11 50 -16 8 -5 53 -22 100 -37 47 -16
139 -47 205 -69 115 -39 179 -57 303 -87 31 -8 77 -19 102 -25 25 -7 74 -19
110 -27 36 -9 90 -22 120 -29 121 -30 145 -34 490 -80 310 -40 225 -40 8425
-40 6245 0 7916 3 8095 13 205 11 288 20 525 53 44 6 107 15 140 19 56 7 116
21 240 54 72 19 145 37 185 46 37 8 97 23 190 47 72 18 191 57 260 83 30 12
69 26 85 30 76 22 232 78 320 115 151 64 153 65 355 164 102 50 212 106 245
126 33 19 67 38 75 41 8 4 53 29 100 56 206 120 230 135 470 303 75 52 298
223 335 256 17 15 80 70 140 122 124 107 358 335 491 478 95 102 114 123 184
209 25 30 53 64 63 75 10 11 27 31 37 45 11 14 39 49 62 79 41 51 74 95 173
234 24 34 75 109 111 167 37 58 77 121 90 140 38 59 104 170 104 175 0 2 29
54 65 116 36 61 65 114 65 117 0 2 29 64 64 136 71 147 97 203 152 336 40 97
65 161 74 195 5 17 27 82 50 145 22 63 52 149 65 190 14 41 29 84 34 95 6 11
15 43 21 70 6 28 17 75 25 105 14 60 39 163 60 250 7 30 18 75 24 100 14 61
40 225 77 495 15 103 26 282 45 680 7 161 9 2531 7 7850 -4 7551 -7 8036 -37
8176 -5 24 -12 78 -16 119 -4 41 -11 91 -15 110 -5 19 -14 78 -20 130 -10 97
-28 195 -50 285 -6 28 -18 75 -25 105 -8 30 -23 93 -34 140 -38 162 -60 251
-67 261 -4 6 -10 25 -15 43 -4 17 -24 76 -44 131 -62 173 -106 299 -114 330
-4 17 -12 39 -18 50 -18 35 -41 88 -69 155 -53 131 -170 370 -252 518 -29 50
-52 94 -52 97 0 3 -12 24 -27 48 -15 23 -32 50 -38 59 -14 24 -103 169 -118
192 -26 43 -215 307 -285 400 -128 169 -360 433 -532 606 -113 113 -288 276
-370 344 -52 43 -106 88 -120 100 -14 12 -43 35 -65 51 -22 17 -42 32 -45 35
-11 12 -181 140 -186 140 -2 0 -30 19 -61 43 -31 23 -108 74 -172 114 -64 39
-120 75 -126 80 -13 11 -179 108 -270 158 -112 63 -402 202 -550 265 -62 27
-112 48 -130 55 -57 22 -214 77 -245 86 -19 6 -42 13 -50 16 -60 24 -211 76
-240 83 -19 4 -57 13 -85 20 -27 6 -77 18 -110 25 -54 12 -126 29 -300 70
-173 40 -326 68 -440 80 -33 4 -77 11 -97 16 -20 5 -133 17 -250 26 -197 16
-817 17 -8073 18 -4323 1 -7891 0 -7930 -2z m15955 -2271 c74 -12 178 -28 230
-37 52 -8 122 -21 155 -29 33 -8 101 -24 150 -35 116 -26 177 -44 245 -71 30
-12 69 -25 85 -30 17 -5 55 -18 85 -30 30 -12 67 -25 81 -30 14 -4 34 -12 45
-18 10 -6 51 -25 89 -43 93 -41 145 -64 203 -91 46 -21 129 -70 227 -132 28
-18 61 -38 75 -44 44 -22 64 -36 168 -112 56 -41 135 -99 175 -128 182 -134
548 -500 682 -683 28 -38 84 -114 125 -170 68 -92 83 -116 120 -184 5 -11 19
-33 30 -50 11 -16 24 -39 29 -51 5 -11 27 -50 48 -85 22 -35 49 -86 62 -114
12 -27 34 -74 47 -102 13 -29 36 -79 50 -110 15 -32 32 -69 39 -83 7 -14 16
-40 20 -57 3 -18 11 -35 16 -38 5 -4 9 -16 9 -28 0 -12 6 -34 14 -49 8 -15 17
-41 21 -58 4 -17 13 -43 21 -58 8 -15 14 -34 14 -42 0 -8 6 -32 14 -55 16 -46
35 -122 81 -325 32 -138 60 -383 75 -655 14 -264 14 -15346 0 -15610 -14 -256
-42 -500 -74 -638 -9 -37 -22 -95 -30 -130 -38 -166 -61 -251 -82 -302 -7 -16
-29 -79 -49 -140 -20 -60 -50 -139 -67 -175 -17 -36 -40 -87 -53 -115 -43 -93
-116 -240 -140 -280 -13 -22 -30 -50 -37 -62 -7 -12 -26 -46 -42 -75 -44 -81
-139 -222 -170 -254 -10 -9 -28 -33 -41 -53 -122 -191 -528 -616 -713 -744
-30 -21 -60 -43 -66 -48 -64 -53 -242 -183 -272 -199 -22 -12 -46 -25 -54 -30
-8 -5 -54 -32 -103 -60 -84 -49 -259 -140 -271 -140 -3 0 -34 -14 -68 -31
-166 -81 -413 -170 -593 -214 -55 -14 -113 -29 -130 -34 -39 -11 -201 -46
-285 -61 -67 -12 -156 -23 -320 -40 -127 -12 -15829 -13 -15960 0 -219 21
-368 43 -460 65 -30 8 -95 23 -145 35 -117 27 -183 45 -275 76 -41 14 -88 29
-105 34 -45 13 -196 68 -230 84 -16 8 -59 28 -95 44 -239 110 -489 246 -596
326 -23 17 -52 38 -64 46 -12 8 -39 28 -59 43 -20 15 -72 55 -116 88 -103 78
-295 250 -382 343 -151 161 -248 269 -257 284 -5 9 -48 68 -96 132 -103 137
-148 203 -173 250 -11 19 -26 46 -35 60 -23 34 -39 61 -52 85 -6 11 -19 34
-30 50 -20 32 -85 160 -118 235 -11 25 -31 70 -45 100 -55 121 -67 149 -67
160 0 5 -4 18 -10 28 -5 9 -21 51 -35 92 -13 41 -38 115 -55 163 -16 48 -30
95 -30 104 0 9 -6 39 -14 67 -67 241 -105 501 -117 801 -14 339 -5 15818 9
15905 5 36 17 117 25 180 21 155 37 236 83 396 8 28 14 58 14 67 0 9 14 56 31
104 16 48 34 102 39 118 29 100 78 225 142 365 12 25 27 59 34 75 31 74 103
214 142 277 10 14 45 73 80 130 34 56 78 125 97 152 74 103 194 262 212 281
10 11 67 74 127 140 59 66 124 135 144 153 21 19 85 78 144 133 59 55 140 124
180 152 82 59 140 101 231 168 69 50 376 234 447 266 92 43 156 72 205 92 28
12 59 27 70 33 22 13 161 64 215 80 19 5 39 14 45 19 5 5 15 9 23 9 8 0 28 6
45 14 34 16 137 44 202 56 22 4 58 12 80 18 94 25 181 41 430 78 61 9 171 20
245 24 74 3 3676 6 8005 5 l7870 -1 135 -22z"/>
<path d="M8945 26449 c-75 -7 -196 -26 -325 -51 -110 -21 -283 -69 -355 -98
-11 -5 -29 -10 -40 -13 -39 -9 -211 -75 -262 -101 -29 -14 -85 -41 -125 -60
-109 -50 -315 -175 -426 -257 -85 -64 -167 -133 -306 -259 -49 -45 -229 -246
-269 -302 -18 -24 -36 -48 -42 -54 -22 -23 -139 -194 -165 -241 -15 -27 -39
-68 -54 -91 -14 -23 -52 -96 -84 -164 -76 -159 -85 -179 -115 -263 -14 -38
-35 -97 -47 -130 -13 -33 -26 -76 -30 -95 -5 -19 -21 -89 -38 -155 -31 -123
-55 -269 -72 -435 -6 -61 -10 -2668 -9 -7335 0 -7569 -1 -7283 39 -7575 6 -47
16 -101 21 -120 35 -142 52 -210 59 -240 4 -19 17 -62 30 -95 12 -33 33 -91
47 -130 45 -126 138 -319 234 -482 199 -341 476 -646 814 -898 122 -91 308
-203 430 -260 44 -20 109 -51 145 -67 36 -17 76 -34 90 -38 14 -5 77 -27 140
-50 63 -23 140 -48 170 -55 175 -44 271 -65 295 -65 15 0 66 -7 114 -14 47 -8
142 -20 211 -26 87 -7 2293 -10 7275 -10 6313 0 7171 2 7320 15 94 9 188 20
210 25 22 5 55 10 74 10 29 0 119 19 301 65 30 7 107 32 170 55 63 23 126 45
140 50 14 4 61 24 105 45 44 20 109 50 145 67 98 45 295 164 385 232 44 34 91
68 105 77 32 21 243 210 294 264 81 85 184 203 232 265 72 94 154 209 154 215
0 3 15 30 34 58 89 140 199 361 250 505 87 243 93 262 130 427 30 133 53 290
66 445 13 154 13 14476 0 14620 -22 252 -91 585 -150 725 -5 11 -16 43 -25 70
-9 28 -21 58 -26 67 -5 10 -9 22 -9 27 0 10 -47 114 -116 257 -19 39 -59 111
-89 160 -30 49 -59 98 -64 109 -29 66 -280 374 -411 505 -149 149 -414 358
-537 424 -21 12 -65 38 -98 58 -33 20 -91 51 -130 68 -38 18 -95 45 -127 60
-31 15 -91 40 -135 55 -43 15 -87 30 -98 34 -177 70 -522 147 -755 171 -116
12 -14576 11 -14695 -1z m5405 -7094 l5 -1970 1950 0 1950 0 3 1973 2 1972
1000 0 1000 0 0 -4870 0 -4870 -1000 0 -1000 0 0 2085 0 2085 -1955 0 -1955 0
-2 -2082 -3 -2083 -1005 0 -1005 0 -3 4855 c-1 2670 0 4861 3 4868 3 10 210
12 1007 10 l1003 -3 5 -1970z"/>
</g>
</svg>
